<?xml version="1.0" encoding="UTF-8"?>
<!DOCTYPE svg PUBLIC "-//W3C//DTD SVG 1.1//EN" "http://www.w3.org/Graphics/SVG/1.1/DTD/svg11.dtd">
<svg version="1.1" xmlns="http://www.w3.org/2000/svg" xmlns:xlink="http://www.w3.org/1999/xlink" x="0" y="0" width="120" height="29.53" viewBox="0, 0, 120, 29.53">
  <g id="Layer_1">
    <path d="M40.7,6.98 C40.7,6.98 40.65,6.98 40.63,6.98 C40.61,6.98 40.58,6.98 40.56,6.98 C35.89,6.98 32.98,9.89 32.98,14.58 L32.98,17.11 C32.98,21.8 35.88,24.71 40.56,24.71 C40.58,24.71 40.61,24.71 40.63,24.71 C40.65,24.71 40.68,24.71 40.7,24.71 C45.37,24.71 48.28,21.8 48.28,17.11 L48.28,14.58 C48.28,9.89 45.37,6.98 40.7,6.98 z M45.01,17.29 C45.01,20.37 43.41,22.15 40.63,22.18 C37.85,22.15 36.25,20.37 36.25,17.29 L36.25,14.41 C36.25,11.33 37.85,9.55 40.63,9.52 C43.41,9.55 45.01,11.33 45.01,14.41 L45.01,17.29 z M85.58,11.5 C85.58,11.5 85.52,11.5 85.49,11.5 C85.47,11.5 85.46,11.5 85.44,11.5 C83.67,11.5 82.41,12.1 81.79,13.25 L81.6,13.6 L81.6,11.8 L78.58,11.8 L78.58,24.36 L81.75,24.36 L81.75,16.88 C81.75,15.12 82.7,14.11 84.34,14.08 C85.91,14.11 86.81,15.1 86.81,16.81 L86.81,24.36 L89.98,24.36 L89.98,16.27 C89.98,13.28 88.34,11.5 85.59,11.5 z M120,9.73 L120,7.33 L109.54,7.33 L109.54,9.73 L113.21,9.73 L113.21,21.95 L109.54,21.95 L109.54,24.35 L120,24.35 L120,21.95 L116.33,21.95 L116.33,9.73 L120,9.73 z M101.25,7.33 L101.25,7.33 C101.25,7.33 97.97,7.33 97.97,7.33 L91.87,24.37 L95.3,24.37 L96.47,20.72 L103.13,20.72 L103.13,20.76 C103.13,20.76 104.3,24.38 104.3,24.38 L107.73,24.38 L101.62,7.34 L101.26,7.34 z M97.22,18.31 L99.79,10.26 L102.34,18.31 L97.22,18.31 z M57.77,11.5 C57.77,11.5 57.72,11.5 57.7,11.5 C57.67,11.5 57.65,11.5 57.63,11.5 C56.04,11.5 54.67,12.16 53.95,13.26 L53.77,13.54 L53.77,11.8 L50.75,11.8 L50.75,28.69 L53.92,28.69 L53.92,22.79 L54.1,23.06 C54.78,24.07 56.11,24.67 57.66,24.67 C57.69,24.67 57.71,24.67 57.74,24.67 C57.76,24.67 57.78,24.67 57.81,24.67 C60.42,24.67 63.05,22.97 63.05,19.16 L63.05,17.02 C63.05,14.28 61.43,11.51 57.79,11.51 z M59.87,19 C59.87,21 58.72,22.24 56.86,22.28 C55.13,22.25 53.92,20.93 53.92,19.05 L53.92,17.16 C53.92,15.26 55.14,13.92 56.89,13.88 C58.73,13.91 59.87,15.16 59.87,17.16 L59.87,19 z M70.92,11.5 L70.92,11.5 C70.86,11.5 70.8,11.51 70.74,11.51 C70.68,11.51 70.62,11.5 70.56,11.5 L70.56,11.5 C66.99,11.5 64.78,13.73 64.78,17.31 L64.78,19.07 C64.78,22.52 67.02,24.66 70.61,24.66 C70.69,24.66 70.76,24.66 70.83,24.65 C70.88,24.65 70.92,24.66 70.97,24.66 C73.38,24.66 75.06,23.78 76.13,21.96 L74,20.73 C73.29,21.78 72.34,22.57 70.98,22.57 C69.16,22.57 68.07,21.45 68.07,19.56 L68.07,19.06 L76.51,19.06 L76.51,16.98 C76.51,13.64 74.32,11.49 70.92,11.49 z M68.06,17.04 L68.06,16.74 C68.06,14.74 69.01,13.62 70.74,13.54 C72.4,13.62 73.4,14.72 73.4,16.53 L73.4,17.03 C73.4,17.03 68.06,17.03 68.06,17.03 z" fill="#FFFFFF"/>
    <path d="M27.21,12.08 C27.88,10.07 27.65,7.87 26.58,6.04 C24.97,3.24 21.73,1.8 18.57,2.47 C17.16,0.89 15.14,-0.01 13.02,-0 C9.79,-0 6.92,2.08 5.92,5.15 C3.84,5.58 2.05,6.88 1,8.72 C-0.62,11.52 -0.25,15.04 1.92,17.44 C1.25,19.45 1.48,21.65 2.55,23.47 C4.16,26.28 7.4,27.72 10.57,27.05 C11.97,28.63 13.99,29.54 16.11,29.53 C19.34,29.53 22.21,27.45 23.21,24.38 C25.29,23.95 27.08,22.65 28.12,20.81 C29.75,18.01 29.38,14.49 27.21,12.09 z M24.91,7.01 C25.55,8.13 25.79,9.44 25.57,10.71 C25.53,10.68 25.45,10.64 25.4,10.61 L19.52,7.21 C19.22,7.04 18.85,7.04 18.55,7.21 L11.66,11.19 L11.66,8.27 L17.35,4.98 C20,3.45 23.38,4.36 24.91,7.01 z M11.66,13.08 L14.56,11.4 L17.46,13.08 L17.46,16.43 L14.56,18.11 L11.66,16.43 L11.66,13.08 z M13.01,1.93 C14.31,1.93 15.56,2.38 16.56,3.21 C16.52,3.23 16.44,3.28 16.38,3.31 L10.5,6.7 C10.2,6.87 10.02,7.19 10.02,7.54 L10.02,15.5 L7.49,14.04 L7.49,7.46 C7.49,4.4 9.96,1.93 13.02,1.92 z M2.68,9.69 L2.68,9.69 C3.33,8.57 4.34,7.71 5.56,7.26 L5.56,14.25 C5.56,14.6 5.74,14.91 6.04,15.09 L12.92,19.06 L10.38,20.53 L4.7,17.25 C2.06,15.72 1.15,12.34 2.68,9.69 z M4.23,22.52 L4.23,22.52 C3.58,21.41 3.35,20.09 3.57,18.82 C3.61,18.85 3.69,18.89 3.74,18.92 L9.62,22.32 C9.92,22.49 10.29,22.49 10.59,22.32 L17.47,18.34 L17.47,21.26 L11.78,24.54 C9.13,26.06 5.75,25.16 4.22,22.52 z M16.12,27.6 C14.83,27.6 13.57,27.15 12.58,26.32 C12.62,26.3 12.71,26.25 12.76,26.22 L18.64,22.83 C18.94,22.66 19.13,22.34 19.12,21.99 L19.12,14.04 L21.65,15.5 L21.65,22.07 C21.65,25.13 19.17,27.61 16.12,27.61 z M26.46,19.84 C25.81,20.96 24.79,21.82 23.58,22.26 L23.58,15.27 C23.58,14.92 23.4,14.6 23.1,14.43 L23.1,14.43 L16.21,10.45 L18.74,8.99 L24.43,12.27 C27.08,13.8 27.98,17.18 26.45,19.83 z" fill="#FFFFFF"/>
  </g>
</svg>
